#!OML:ASF Y:\EmotionMaleHayes\Project 1\Capture day 1\Session 1\Male1.ASF
:FULLY-SPECIFIED
:DEGREES
177
root 6.45812 15.3707 0.742045 63.3909 86.9251 77.7368
lowerback 15.687 1.7469 -4.46642
upperback 6.63566 2.00942 -0.985494
thorax -1.84046 1.10674 1.14092
lowerneck -24.7582 0.565765 1.73864
upperneck 30.6377 0.254019 0.75724
head 14.7775 0.58959 0.108365
rclavicle -2.32827e-014 1.63003e-014
rhumerus 39.6802 17.0261 -45.1058
rradius 46.3424
rwrist -1.70222
rhand 19.1722 -36.6613
rfingers 7.12502
rthumb 43.7632 -60.632
lclavicle -2.32827e-014 1.63003e-014
lhumerus 42.213 -19.8007 39.4292
lradius 45.6604
lwrist -1.71554
lhand 19.8515 -19.3756
lfingers 7.12502
lthumb 44.3967 4.35774
rfemur -4.18776 -7.64436 2.66975
rtibia 54.3792
rfoot -30.9504 -5.78948
rtoes -15.0122
lfemur 0.870539 11.3731 -6.24877
ltibia 52.4548
lfoot -31.2731 -0.894837
ltoes -13.0367
178
root 6.45856 15.3718 0.743634 63.5941 87.0083 77.9415
lowerback 15.6961 1.737 -4.39517
upperback 6.61439 2.0038 -0.995549
thorax -1.86558 1.10534 1.09063
lowerneck -24.69 0.579485 1.83684
upperneck 30.6264 0.235796 0.757733
head 14.758 0.594385 0.0880501
rclavicle -1.21259e-014 1.80894e-014
rhumerus 39.5914 16.9984 -45.2209
rradius 46.3276
rwrist -1.64735
rhand 19.2202 -36.6216
rfingers 7.12502
rthumb 43.808 -60.5757
lclavicle -1.21259e-014 1.80894e-014
lhumerus 42.2652 -19.9056 39.2954
lradius 45.6529
lwrist -1.67465
lhand 19.8161 -19.3287
lfingers 7.12502
lthumb 44.3638 4.41714
rfemur -4.14311 -7.65811 2.76375
rtibia 54.3667
rfoot -30.9735 -5.7351
rtoes -14.8234
lfemur 0.876433 11.3488 -6.13944
ltibia 52.4092
lfoot -31.1765 -0.858141
ltoes -13.2446
179
root 6.45839 15.3708 0.743093 64.092 87.003 78.4167
lowerback 15.6919 1.71955 -4.43604
upperback 6.59275 1.97296 -0.990659
thorax -1.88582 1.08917 1.12378
lowerneck -24.64 0.600465 1.89517
upperneck 30.5758 0.272654 0.671339
head 14.7247 0.602889 0.0488969
rclavicle -1.71949e-014 -7.95139e-016
rhumerus 39.5945 17.046 -45.2301
rradius 46.2935
rwrist -1.671
rhand 19.1469 -36.406
rfingers 7.12502
rthumb 43.7396 -60.3854
lclavicle -1.71949e-014 -7.95139e-016
lhumerus 42.231 -19.9454 39.2557
lradius 45.6072
lwrist -1.49472
lhand 19.6617 -19.2293
lfingers 7.12502
lthumb 44.2198 4.57109
rfemur -4.14027 -7.66018 2.74591
rtibia 54.3638
rfoot -30.9696 -5.6748
rtoes -14.5376
lfemur 0.851943 11.3112 -6.17326
ltibia 52.3812
lfoot -31.1507 -0.989752
ltoes -12.324
180
root 6.45722 15.3698 0.741411 63.8527 86.9606 78.1733
lowerback 15.6968 1.73613 -4.44121
upperback 6.57165 1.9912 -1.01762
thorax -1.91093 1.09878 1.09467
lowerneck -24.5518 0.575883 1.87997
upperneck 30.5319 0.237314 0.696071
head 14.6856 0.589512 0.0541743
rclavicle 7.7526e-015 -2.66371e-014
rhumerus 39.5517 17.0625 -45.2469
rradius 46.2531
rwrist -1.71625
rhand 19.1276 -36.3326
rfingers 7.12502
rthumb 43.7216 -60.3185
lclavicle 7.7526e-015 -2.66371e-014
lhumerus 42.2305 -20.0191 39.2194
lradius 45.5646
lwrist -1.35647
lhand 19.5058 -19.2388
lfingers 7.12502
lthumb 44.0744 4.61625
rfemur -4.16066 -7.64129 2.70448
rtibia 54.3482
rfoot -30.954 -5.75447
rtoes -14.8111
lfemur 0.855005 11.3297 -6.22659
ltibia 52.3938
lfoot -31.1965 -0.987617
ltoes -12.3419
181
root 6.45672 15.3711 0.739588 64.124 86.942 78.4779
lowerback 15.7122 1.73453 -4.42925
upperback 6.59947 1.99287 -1.0366
thorax -1.88864 1.10043 1.06785
lowerneck -24.608 0.584924 1.84331
upperneck 30.5479 0.239189 0.765627
head 14.7049 0.596362 0.0898173
rclavicle 1.40889e-014 -1.39149e-015
rhumerus 39.5377 17.0529 -45.2093
rradius 46.2757
rwrist -1.71325
rhand 19.1456 -36.3559
rfingers 7.12502
rthumb 43.7384 -60.3357
lclavicle 1.40889e-014 -1.39149e-015
lhumerus 42.2704 -20.0274 39.1233
lradius 45.5598
lwrist -1.31384
lhand 19.5033 -19.222
lfingers 7.12502
lthumb 44.0721 4.634
rfemur -4.13729 -7.66951 2.65428
rtibia 54.3731
rfoot -30.9346 -5.7495
rtoes -14.8577
lfemur 0.902901 11.3369 -6.24637
ltibia 52.3941
lfoot -31.2663 -0.961353
ltoes -12.7756
182
root 6.45605 15.3718 0.738421 63.913 86.9665 78.2739
lowerback 15.7095 1.71066 -4.45537
upperback 6.64521 1.96322 -0.987722
thorax -1.83945 1.08421 1.13991
lowerneck -24.7496 0.638246 1.85928
upperneck 30.5579 0.335798 0.671924
head 14.7406 0.623609 0.0676069
rclavicle -1.49089e-016 -3.57812e-015
rhumerus 39.6959 17.0964 -45.0955
rradius 46.285
rwrist -1.7275
rhand 19.0934 -36.3972
rfingers 7.12502
rthumb 43.6896 -60.3948
lclavicle -1.49089e-016 -3.57812e-015
lhumerus 42.2657 -19.9286 39.0916
lradius 45.5488
lwrist -1.26446
lhand 19.5205 -19.2122
lfingers 7.12502
lthumb 44.0882 4.63771
rfemur -4.15074 -7.67627 2.6764
rtibia 54.3609
rfoot -30.9171 -5.66086
rtoes -14.6272
lfemur 0.910696 11.3677 -6.18908
ltibia 52.4041
lfoot -31.3074 -1.13298
ltoes -12.2397
183
root 6.45464 15.3717 0.73708 63.0372 86.9972 77.3783
lowerback 15.7052 1.69419 -4.43931
upperback 6.64794 1.94444 -0.954788
thorax -1.83416 1.07423 1.16886
lowerneck -24.7919 0.66807 1.88309
upperneck 30.5474 0.39189 0.599241
head 14.7455 0.638285 0.0444082
rclavicle 1.61761e-014 8.54774e-015
rhumerus 39.8009 17.1641 -45.0394
rradius 46.2849
rwrist -1.75236
rhand 19.0444 -36.4725
rfingers 7.12502
rthumb 43.6439 -60.4869
lclavicle 1.61761e-014 8.54774e-015
lhumerus 42.2355 -19.876 39.0933
lradius 45.5229
lwrist -1.25738
lhand 19.5026 -19.2555
lfingers 7.12502
lthumb 44.0715 4.60072
rfemur -4.17916 -7.63958 2.74188
rtibia 54.2945
rfoot -30.9121 -5.681
rtoes -14.8097
lfemur 0.880738 11.436 -6.12096
ltibia 52.43
lfoot -31.2637 -1.17931
ltoes -12.198
184
root 6.45472 15.3723 0.735475 63.1503 87.0209 77.4752
lowerback 15.7221 1.69002 -4.35725
upperback 6.60056 1.94434 -0.992402
thorax -1.89023 1.07633 1.08191
lowerneck -24.7302 0.660653 1.93824
upperneck 30.5682 0.358837 0.609218
head 14.7416 0.633857 0.032803
rclavicle -5.1684e-015 4.17448e-015
rhumerus 39.7194 17.2088 -45.0505
rradius 46.2632
rwrist -1.79546
rhand 19.0396 -36.4734
rfingers 7.12502
rthumb 43.6394 -60.4894
lclavicle -5.1684e-015 4.17448e-015
lhumerus 42.2681 -19.9926 38.9989
lradius 45.5082
lwrist -1.23595
lhand 19.572 -19.326
lfingers 7.12502
lthumb 44.1362 4.50588
rfemur -4.15028 -7.64444 2.76552
rtibia 54.2335
rfoot -30.8826 -5.83546
rtoes -15.2133
lfemur 0.860211 11.4524 -6.11071
ltibia 52.4067
lfoot -31.1955 -1.04787
ltoes -12.5843
185
root 6.45484 15.3724 0.73297 64.0249 86.9709 78.3104
lowerback 15.685 1.70027 -4.37429
upperback 6.577 1.95401 -1.04108
thorax -1.89481 1.08135 1.03942
lowerneck -24.6739 0.66293 2.02268
upperneck 30.5615 0.340578 0.578266
head 14.7267 0.632201 0.00190844
rclavicle -2.5345e-015 -2.78299e-015
rhumerus 39.6462 17.1666 -45.0977
rradius 46.2447
rwrist -1.70502
rhand 19.1706 -36.3961
rfingers 7.12502
rthumb 43.7616 -60.3673
lclavicle -2.5345e-015 -2.78299e-015
lhumerus 42.3348 -20.045 38.9436
lradius 45.4694
lwrist -1.45098
lhand 19.477 -19.3149
lfingers 7.12502
lthumb 44.0475 4.55019
rfemur -4.1611 -7.69406 2.66284
rtibia 54.2133
rfoot -30.849 -5.84962
rtoes -15.177
lfemur 0.822105 11.45 -6.22131
ltibia 52.3476
lfoot -31.1718 -0.89379
ltoes -12.8638
186
root 6.45244 15.3714 0.73089 64.3703 86.9427 78.6271
lowerback 15.6806 1.69191 -4.40882
upperback 6.57866 1.93829 -1.05173
thorax -1.89031 1.07314 1.05055
lowerneck -24.6916 0.685053 2.07106
upperneck 30.5432 0.366121 0.533894
head 14.7228 0.641373 -0.0198443
rclavicle 1.54058e-015 1.74931e-014
rhumerus 39.6579 17.1474 -45.104
rradius 46.2397
rwrist -1.5762
rhand 19.2226 -36.157
rfingers 7.12502
rthumb 43.8102 -60.1103
lclavicle 1.54058e-015 1.74931e-014
lhumerus 42.3401 -19.9567 38.9633
lradius 45.4571
lwrist -1.58744
lhand 19.843 -19.4252
lfingers 7.12502
lthumb 44.3888 4.31112
rfemur -4.20644 -7.71788 2.60111
rtibia 54.2249
rfoot -30.8432 -5.67086
rtoes -14.7709
lfemur 0.784733 11.4511 -6.29603
ltibia 52.3807
lfoot -31.1865 -0.820678
ltoes -13.1609
187
root 6.45053 15.3704 0.729568 64.158 86.9523 78.4147
lowerback 15.7377 1.70259 -4.35413
upperback 6.53792 1.95281 -1.09021
thorax -1.96187 1.08271 0.974442
lowerneck -24.6485 0.67972 2.16694
upperneck 30.5561 0.324299 0.524521
head 14.7194 0.634828 -0.0481292
rclavicle -9.29318e-015 -1.39149e-015
rhumerus 39.5516 17.1314 -45.2127
rradius 46.214
rwrist -1.50083
rhand 19.1284 -35.9864
rfingers 7.12502
rthumb 43.7223 -59.9721
lclavicle -9.29318e-015 -1.39149e-015
lhumerus 42.4108 -20.0677 38.8822
lradius 45.4068
lwrist -1.44356
lhand 19.8412 -19.4698
lfingers 7.12502
lthumb 44.3871 4.26714
rfemur -4.25363 -7.71489 2.60819
rtibia 54.2711
rfoot -30.8386 -5.5598
rtoes -14.5391
lfemur 0.796356 11.448 -6.29029
ltibia 52.4115
lfoot -31.1624 -0.918906
ltoes -12.7111
